<?xml version="1.0" encoding="UTF-8"?> <svg xmlns="http://www.w3.org/2000/svg" width="100" height="40" viewBox="0 0 100 40" fill="none"> <path fill-rule="evenodd" clip-rule="evenodd" d="M23.4508 18.9931C24.6904 18.9931 25.9301 19.7985 26.3433 21.1072H20.6615C21.0747 19.7985 22.2111 18.9931 23.4508 18.9931ZM23.4508 25.7381C22.2111 25.7381 20.9714 24.9327 20.5582 23.624H23.4508H26.3433H29.3392C29.5458 22.7179 29.5458 21.8119 29.2359 20.9058C28.616 18.5904 26.5499 16.9797 24.1739 16.6777C20.3516 16.275 17.1491 19.3958 17.5624 23.1206C17.8723 25.8387 20.145 28.0535 22.9342 28.2548C24.7937 28.4562 26.5499 27.7515 27.7896 26.5434C27.0665 25.5367 25.8268 25.134 24.6904 25.6374C24.2772 25.6374 23.9673 25.7381 23.4508 25.7381Z" fill="white"></path> <path fill-rule="evenodd" clip-rule="evenodd" d="M66.5299 18.9931C67.7695 18.9931 69.0092 19.7985 69.4224 21.1072H63.7406C64.1538 19.7985 65.2902 18.9931 66.5299 18.9931ZM66.5299 25.7381C65.2902 25.7381 64.0506 24.9327 63.6373 23.624H66.5299H69.4224H72.4183C72.6249 22.7179 72.6249 21.8119 72.315 20.9058C71.6952 18.5904 69.6291 16.9797 67.253 16.6777C63.4307 16.275 60.2282 19.3958 60.6415 23.1206C60.9514 25.8387 63.2241 28.0535 66.0134 28.2548C67.8729 28.4562 69.6291 27.7515 70.8687 26.5434C70.1456 25.5367 68.9059 25.134 67.7696 25.6374C67.3563 25.6374 67.0464 25.7381 66.5299 25.7381Z" fill="white"></path> <path fill-rule="evenodd" clip-rule="evenodd" d="M37.19 25.2349C35.5371 25.2349 34.2974 23.9261 34.2974 22.4161C34.2974 20.8053 35.6404 19.5973 37.19 19.5973C38.8429 19.5973 40.0825 20.906 40.0825 22.4161C40.0825 23.9261 38.7396 25.2349 37.19 25.2349ZM37.19 16.5771C33.8842 16.5771 31.1982 19.1946 31.1982 22.4161C31.1982 25.6375 33.8842 28.255 37.19 28.255C40.4957 28.255 43.1817 25.6375 43.1817 22.4161C43.1817 19.1946 40.4957 16.5771 37.19 16.5771Z" fill="white"></path> <path fill-rule="evenodd" clip-rule="evenodd" d="M11.7768 13.8589V22.9193L4.64874 13.3555C3.61569 11.8455 1.8595 11.0401 0 11.0401V28.1542C1.65289 28.1542 2.89254 26.8455 2.89254 25.3354V16.275L10.0206 25.8388C11.0537 27.3489 12.8098 28.1542 14.6693 28.1542V11.0401C13.1198 10.9394 11.7768 12.2482 11.7768 13.8589Z" fill="white"></path> <path fill-rule="evenodd" clip-rule="evenodd" d="M52.7896 10.9395C49.5871 10.9395 46.9012 13.4562 46.9012 16.6777H42.9756C42.9756 18.2885 44.3185 19.4965 45.8681 19.4965H46.7979V28.0536C48.4508 28.0536 49.6904 26.7448 49.6904 25.2348V19.4965H53.616C53.616 17.8858 52.2731 16.6777 50.7235 16.6777H49.7937C49.7937 15.067 51.1367 13.8589 52.6863 13.8589C54.3392 13.8589 55.5788 15.067 55.5788 16.6777V28.0536C57.2317 28.0536 58.4714 26.7448 58.4714 25.2348V16.6777C58.678 13.4562 55.9921 10.9395 52.7896 10.9395Z" fill="white"></path> <path fill-rule="evenodd" clip-rule="evenodd" d="M71.2803 13.5571C71.2803 14.4632 72.0034 15.2685 73.0364 15.2685C73.9662 15.2685 74.7926 14.5638 74.7926 13.5571C74.7926 12.5504 74.0695 11.8457 73.0364 11.8457C72.1067 11.9464 71.2803 12.6511 71.2803 13.5571Z" fill="url(#paint0_linear_294_179)"></path> <path fill-rule="evenodd" clip-rule="evenodd" d="M96.4873 6.71142C96.4873 7.61746 97.2105 8.42281 98.2435 8.42281C99.1732 8.42281 99.9997 7.71813 99.9997 6.71142C99.9997 5.80538 99.2766 5 98.2435 5C97.2105 5 96.4873 5.80538 96.4873 6.71142Z" fill="url(#paint1_linear_294_179)"></path> <path fill-rule="evenodd" clip-rule="evenodd" d="M71.2803 31.1743C71.2803 32.0804 72.0034 32.8857 73.0364 32.8857C73.9662 32.8857 74.7926 32.181 74.7926 31.1743C74.7926 30.1676 74.0695 29.4629 73.0364 29.4629C72.1067 29.5636 71.2803 30.2683 71.2803 31.1743Z" fill="url(#paint2_linear_294_179)"></path> <path fill-rule="evenodd" clip-rule="evenodd" d="M91.5293 33.2886C91.5293 34.1946 92.2524 35 93.2855 35C94.2152 35 95.0417 34.2953 95.0417 33.2886C95.0417 32.2819 94.3185 31.5771 93.2855 31.5771C92.3557 31.6778 91.5293 32.3825 91.5293 33.2886Z" fill="url(#paint3_linear_294_179)"></path> <path fill-rule="evenodd" clip-rule="evenodd" d="M74.2773 27.1479C74.2773 28.7586 75.6203 29.9667 77.1699 29.9667C78.8228 29.9667 80.0625 28.658 80.0625 27.1479C80.0625 25.5371 78.7195 24.3291 77.1699 24.3291C75.6203 24.3291 74.2773 25.5371 74.2773 27.1479Z" fill="url(#paint4_linear_294_179)"></path> <path fill-rule="evenodd" clip-rule="evenodd" d="M86.9838 14.7651C85.3309 14.7651 84.0913 16.0739 84.0913 17.6846C84.0913 18.6913 83.2649 19.4967 82.2318 19.4967H82.0252C80.9921 19.4967 80.1657 18.6913 80.1657 17.6846C80.1657 16.0739 78.926 14.7651 77.2731 14.7651C75.6202 14.7651 74.2773 16.0738 74.3806 17.5839C74.3806 19.1947 75.7236 20.4027 77.3764 20.4027C78.4095 20.4027 79.2359 21.2081 79.2359 22.2148V22.3155C79.2359 23.9262 80.5789 25.2349 82.3351 25.1343C83.8847 25.0336 85.1243 23.7249 85.1243 22.2148C85.1243 21.2081 85.9508 20.4027 86.9838 20.4027C88.6367 20.4027 89.9797 19.1947 89.9797 17.5839C89.8764 16.0738 88.5334 14.7651 86.9838 14.7651Z" fill="url(#paint5_linear_294_179)"></path> <path fill-rule="evenodd" clip-rule="evenodd" d="M86.7773 24.3291C85.2277 24.4298 83.988 25.6378 83.988 27.0472C83.8847 28.6579 85.2277 29.9667 86.8806 29.9667H88.1202C88.2235 29.9667 88.3268 30.0673 88.3268 30.168C88.3268 31.0741 89.1533 31.8794 90.1863 31.7788C91.0128 31.6781 91.7359 31.0741 91.7359 30.168C91.8392 29.1613 91.0128 28.3559 89.9797 28.3559C89.8764 28.3559 89.7731 28.2553 89.7731 28.1546V27.1479C89.7731 25.5371 88.4302 24.3291 86.8806 24.3291C86.8806 24.3291 86.8806 24.3291 86.7773 24.3291Z" fill="url(#paint6_linear_294_179)"></path> <path fill-rule="evenodd" clip-rule="evenodd" d="M93.2848 9.832C93.2848 9.93267 93.1815 10.0334 93.0782 10.0334H91.8386C90.1857 10.0334 88.8427 11.3421 88.946 12.9528C89.0493 14.4629 90.289 15.6709 91.7352 15.6709C93.3881 15.7716 94.7311 14.4629 94.8344 12.8521V11.6441C94.8344 11.5434 94.9377 11.4427 95.041 11.4427C95.9708 11.4427 96.7972 10.6374 96.6939 9.63067C96.5906 8.8253 95.9708 8.12061 95.041 8.12061H94.9377C94.008 8.12061 93.2848 8.82529 93.2848 9.832Z" fill="url(#paint7_linear_294_179)"></path> <defs> <linearGradient id="paint0_linear_294_179" x1="73.0429" y1="35.0207" x2="73.0429" y2="5.18173" gradientUnits="userSpaceOnUse"> <stop stop-color="#F59A00"></stop> <stop offset="0.01" stop-color="#EEB117"></stop> <stop offset="0.33" stop-color="#E63223"></stop> <stop offset="0.66" stop-color="#D30059"></stop> <stop offset="1" stop-color="#820E64"></stop> </linearGradient> <linearGradient id="paint1_linear_294_179" x1="98.1822" y1="35.0203" x2="98.1822" y2="5.18171" gradientUnits="userSpaceOnUse"> <stop stop-color="#F59A00"></stop> <stop offset="0.01" stop-color="#EEB117"></stop> <stop offset="0.33" stop-color="#E63223"></stop> <stop offset="0.66" stop-color="#D30059"></stop> <stop offset="1" stop-color="#820E64"></stop> </linearGradient> <linearGradient id="paint2_linear_294_179" x1="73.0429" y1="35.0202" x2="73.0429" y2="5.18124" gradientUnits="userSpaceOnUse"> <stop stop-color="#F59A00"></stop> <stop offset="0.01" stop-color="#EEB117"></stop> <stop offset="0.33" stop-color="#E63223"></stop> <stop offset="0.66" stop-color="#D30059"></stop> <stop offset="1" stop-color="#820E64"></stop> </linearGradient> <linearGradient id="paint3_linear_294_179" x1="93.2909" y1="35.0205" x2="93.2909" y2="5.18192" gradientUnits="userSpaceOnUse"> <stop stop-color="#F59A00"></stop> <stop offset="0.01" stop-color="#EEB117"></stop> <stop offset="0.33" stop-color="#E63223"></stop> <stop offset="0.66" stop-color="#D30059"></stop> <stop offset="1" stop-color="#820E64"></stop> </linearGradient> <linearGradient id="paint4_linear_294_179" x1="77.1917" y1="35.0204" x2="77.1917" y2="5.18163" gradientUnits="userSpaceOnUse"> <stop stop-color="#F59A00"></stop> <stop offset="0.01" stop-color="#EEB117"></stop> <stop offset="0.33" stop-color="#E63223"></stop> <stop offset="0.66" stop-color="#D30059"></stop> <stop offset="1" stop-color="#820E64"></stop> </linearGradient> <linearGradient id="paint5_linear_294_179" x1="82.0724" y1="34.8679" x2="82.0724" y2="5.26521" gradientUnits="userSpaceOnUse"> <stop stop-color="#F59A00"></stop> <stop offset="0.01" stop-color="#EEB117"></stop> <stop offset="0.33" stop-color="#E63223"></stop> <stop offset="0.66" stop-color="#D30059"></stop> <stop offset="1" stop-color="#820E64"></stop> </linearGradient> <linearGradient id="paint6_linear_294_179" x1="87.9271" y1="34.9387" x2="87.9271" y2="5.32874" gradientUnits="userSpaceOnUse"> <stop stop-color="#F59A00"></stop> <stop offset="0.01" stop-color="#EEB117"></stop> <stop offset="0.33" stop-color="#E63223"></stop> <stop offset="0.66" stop-color="#D30059"></stop> <stop offset="1" stop-color="#820E64"></stop> </linearGradient> <linearGradient id="paint7_linear_294_179" x1="92.8069" y1="34.8088" x2="92.8069" y2="5.20456" gradientUnits="userSpaceOnUse"> <stop stop-color="#F59A00"></stop> <stop offset="0.01" stop-color="#EEB117"></stop> <stop offset="0.33" stop-color="#E63223"></stop> <stop offset="0.66" stop-color="#D30059"></stop> <stop offset="1" stop-color="#820E64"></stop> </linearGradient> </defs> </svg> 